<mxfile host="app.diagrams.net" modified="2021-07-29T07:22:42.970Z" agent="5.0 (Windows NT 10.0; Win64; x64) AppleWebKit/537.36 (KHTML, like Gecko) Chrome/92.0.4515.107 Safari/537.36 Edg/92.0.902.55" etag="e6xdKManz5UPHUcKZeC-" version="14.9.2" type="github">
  <diagram id="prtHgNgQTEPvFCAcTncT" name="Page-1">
    <mxGraphModel dx="1422" dy="762" grid="1" gridSize="10" guides="1" tooltips="1" connect="1" arrows="1" fold="1" page="1" pageScale="1" pageWidth="827" pageHeight="1169" math="0" shadow="0">
      <root>
        <mxCell id="0" />
        <mxCell id="1" parent="0" />
        <mxCell id="MDJzfDRsQ1mTerN8lBSb-1" value="规则管理员" style="shape=umlActor;verticalLabelPosition=bottom;verticalAlign=top;html=1;outlineConnect=0;" parent="1" vertex="1">
          <mxGeometry x="1030" y="310" width="30" height="60" as="geometry" />
        </mxCell>
        <mxCell id="MDJzfDRsQ1mTerN8lBSb-3" value="学生A" style="shape=umlActor;verticalLabelPosition=bottom;verticalAlign=top;html=1;outlineConnect=0;" parent="1" vertex="1">
          <mxGeometry x="130" y="310" width="30" height="60" as="geometry" />
        </mxCell>
        <mxCell id="MDJzfDRsQ1mTerN8lBSb-4" value="学生B" style="shape=umlActor;verticalLabelPosition=bottom;verticalAlign=top;html=1;outlineConnect=0;" parent="1" vertex="1">
          <mxGeometry x="130" y="520" width="30" height="60" as="geometry" />
        </mxCell>
        <mxCell id="MDJzfDRsQ1mTerN8lBSb-5" value="学生A家长" style="shape=umlActor;verticalLabelPosition=bottom;verticalAlign=top;html=1;outlineConnect=0;" parent="1" vertex="1">
          <mxGeometry x="130" y="420" width="30" height="60" as="geometry" />
        </mxCell>
        <mxCell id="MDJzfDRsQ1mTerN8lBSb-6" value="教师" style="shape=umlActor;verticalLabelPosition=bottom;verticalAlign=top;html=1;outlineConnect=0;" parent="1" vertex="1">
          <mxGeometry x="130" y="620" width="30" height="60" as="geometry" />
        </mxCell>
        <mxCell id="MDJzfDRsQ1mTerN8lBSb-7" value="评价体系规则" style="ellipse;whiteSpace=wrap;html=1;" parent="1" vertex="1">
          <mxGeometry x="540" y="300" width="120" height="80" as="geometry" />
        </mxCell>
        <mxCell id="kHKhQP7QaM05DCIvFR9r-2" value="" style="endArrow=none;html=1;exitX=0.5;exitY=0.5;exitDx=0;exitDy=0;exitPerimeter=0;entryX=1;entryY=0.5;entryDx=0;entryDy=0;" edge="1" parent="1" source="MDJzfDRsQ1mTerN8lBSb-1" target="MDJzfDRsQ1mTerN8lBSb-7">
          <mxGeometry width="50" height="50" relative="1" as="geometry">
            <mxPoint x="440" y="230" as="sourcePoint" />
            <mxPoint x="670" y="200" as="targetPoint" />
          </mxGeometry>
        </mxCell>
        <mxCell id="kHKhQP7QaM05DCIvFR9r-14" value="" style="edgeStyle=orthogonalEdgeStyle;rounded=0;orthogonalLoop=1;jettySize=auto;html=1;" edge="1" parent="1" source="kHKhQP7QaM05DCIvFR9r-3" target="MDJzfDRsQ1mTerN8lBSb-7">
          <mxGeometry relative="1" as="geometry" />
        </mxCell>
        <mxCell id="kHKhQP7QaM05DCIvFR9r-3" value="自评" style="ellipse;whiteSpace=wrap;html=1;" vertex="1" parent="1">
          <mxGeometry x="320" y="300" width="120" height="80" as="geometry" />
        </mxCell>
        <mxCell id="kHKhQP7QaM05DCIvFR9r-4" value="家长评" style="ellipse;whiteSpace=wrap;html=1;" vertex="1" parent="1">
          <mxGeometry x="320" y="410" width="120" height="80" as="geometry" />
        </mxCell>
        <mxCell id="kHKhQP7QaM05DCIvFR9r-5" value="教师评" style="ellipse;whiteSpace=wrap;html=1;" vertex="1" parent="1">
          <mxGeometry x="320" y="610" width="120" height="80" as="geometry" />
        </mxCell>
        <mxCell id="kHKhQP7QaM05DCIvFR9r-7" value="小组评价" style="ellipse;whiteSpace=wrap;html=1;" vertex="1" parent="1">
          <mxGeometry x="320" y="510" width="120" height="80" as="geometry" />
        </mxCell>
        <mxCell id="kHKhQP7QaM05DCIvFR9r-8" value="" style="endArrow=none;html=1;exitX=0.5;exitY=0.5;exitDx=0;exitDy=0;exitPerimeter=0;" edge="1" parent="1" source="MDJzfDRsQ1mTerN8lBSb-3" target="kHKhQP7QaM05DCIvFR9r-3">
          <mxGeometry width="50" height="50" relative="1" as="geometry">
            <mxPoint x="145" y="349.5" as="sourcePoint" />
            <mxPoint x="320" y="349.5" as="targetPoint" />
          </mxGeometry>
        </mxCell>
        <mxCell id="kHKhQP7QaM05DCIvFR9r-9" value="" style="endArrow=none;html=1;exitX=0.5;exitY=0.5;exitDx=0;exitDy=0;exitPerimeter=0;entryX=0;entryY=0.5;entryDx=0;entryDy=0;" edge="1" parent="1" source="MDJzfDRsQ1mTerN8lBSb-6" target="kHKhQP7QaM05DCIvFR9r-5">
          <mxGeometry width="50" height="50" relative="1" as="geometry">
            <mxPoint x="155" y="350" as="sourcePoint" />
            <mxPoint x="330" y="350" as="targetPoint" />
          </mxGeometry>
        </mxCell>
        <mxCell id="kHKhQP7QaM05DCIvFR9r-10" value="" style="endArrow=none;html=1;exitX=0.5;exitY=0.5;exitDx=0;exitDy=0;exitPerimeter=0;entryX=0;entryY=0.5;entryDx=0;entryDy=0;" edge="1" parent="1" source="MDJzfDRsQ1mTerN8lBSb-4" target="kHKhQP7QaM05DCIvFR9r-7">
          <mxGeometry width="50" height="50" relative="1" as="geometry">
            <mxPoint x="165" y="360" as="sourcePoint" />
            <mxPoint x="340" y="360" as="targetPoint" />
          </mxGeometry>
        </mxCell>
        <mxCell id="kHKhQP7QaM05DCIvFR9r-11" value="" style="endArrow=none;html=1;exitX=0.5;exitY=0.5;exitDx=0;exitDy=0;exitPerimeter=0;entryX=0;entryY=0.5;entryDx=0;entryDy=0;" edge="1" parent="1" source="MDJzfDRsQ1mTerN8lBSb-5" target="kHKhQP7QaM05DCIvFR9r-4">
          <mxGeometry width="50" height="50" relative="1" as="geometry">
            <mxPoint x="175" y="370" as="sourcePoint" />
            <mxPoint x="350" y="370" as="targetPoint" />
          </mxGeometry>
        </mxCell>
        <mxCell id="kHKhQP7QaM05DCIvFR9r-15" value="" style="edgeStyle=orthogonalEdgeStyle;rounded=0;orthogonalLoop=1;jettySize=auto;html=1;exitX=1;exitY=0.5;exitDx=0;exitDy=0;entryX=0.5;entryY=1;entryDx=0;entryDy=0;" edge="1" parent="1" source="kHKhQP7QaM05DCIvFR9r-5" target="MDJzfDRsQ1mTerN8lBSb-7">
          <mxGeometry relative="1" as="geometry">
            <mxPoint x="450" y="350" as="sourcePoint" />
            <mxPoint x="560" y="350" as="targetPoint" />
          </mxGeometry>
        </mxCell>
        <mxCell id="kHKhQP7QaM05DCIvFR9r-16" value="" style="edgeStyle=orthogonalEdgeStyle;rounded=0;orthogonalLoop=1;jettySize=auto;html=1;exitX=1;exitY=0.5;exitDx=0;exitDy=0;entryX=0.5;entryY=1;entryDx=0;entryDy=0;" edge="1" parent="1" source="kHKhQP7QaM05DCIvFR9r-7" target="MDJzfDRsQ1mTerN8lBSb-7">
          <mxGeometry relative="1" as="geometry">
            <mxPoint x="460" y="360" as="sourcePoint" />
            <mxPoint x="570" y="360" as="targetPoint" />
          </mxGeometry>
        </mxCell>
        <mxCell id="kHKhQP7QaM05DCIvFR9r-17" value="" style="edgeStyle=orthogonalEdgeStyle;rounded=0;orthogonalLoop=1;jettySize=auto;html=1;exitX=1;exitY=0.5;exitDx=0;exitDy=0;entryX=0.5;entryY=1;entryDx=0;entryDy=0;" edge="1" parent="1" source="kHKhQP7QaM05DCIvFR9r-4" target="MDJzfDRsQ1mTerN8lBSb-7">
          <mxGeometry relative="1" as="geometry">
            <mxPoint x="470" y="370" as="sourcePoint" />
            <mxPoint x="580" y="370" as="targetPoint" />
          </mxGeometry>
        </mxCell>
        <mxCell id="kHKhQP7QaM05DCIvFR9r-19" value="" style="edgeStyle=orthogonalEdgeStyle;rounded=0;orthogonalLoop=1;jettySize=auto;html=1;exitX=0.5;exitY=0;exitDx=0;exitDy=0;entryX=1;entryY=1;entryDx=0;entryDy=0;" edge="1" parent="1" source="kHKhQP7QaM05DCIvFR9r-18" target="kHKhQP7QaM05DCIvFR9r-5">
          <mxGeometry relative="1" as="geometry">
            <Array as="points">
              <mxPoint x="540" y="678" />
            </Array>
          </mxGeometry>
        </mxCell>
        <mxCell id="kHKhQP7QaM05DCIvFR9r-25" value="" style="edgeStyle=orthogonalEdgeStyle;rounded=0;orthogonalLoop=1;jettySize=auto;html=1;" edge="1" parent="1" source="kHKhQP7QaM05DCIvFR9r-18" target="kHKhQP7QaM05DCIvFR9r-24">
          <mxGeometry relative="1" as="geometry" />
        </mxCell>
        <mxCell id="kHKhQP7QaM05DCIvFR9r-18" value="评价统计" style="ellipse;whiteSpace=wrap;html=1;" vertex="1" parent="1">
          <mxGeometry x="480" y="730" width="120" height="80" as="geometry" />
        </mxCell>
        <mxCell id="kHKhQP7QaM05DCIvFR9r-20" value="" style="edgeStyle=orthogonalEdgeStyle;rounded=0;orthogonalLoop=1;jettySize=auto;html=1;entryX=1;entryY=1;entryDx=0;entryDy=0;exitX=0.5;exitY=0;exitDx=0;exitDy=0;" edge="1" parent="1" source="kHKhQP7QaM05DCIvFR9r-18" target="kHKhQP7QaM05DCIvFR9r-3">
          <mxGeometry relative="1" as="geometry">
            <mxPoint x="540" y="780" as="sourcePoint" />
            <mxPoint x="390" y="700" as="targetPoint" />
            <Array as="points">
              <mxPoint x="540" y="368" />
            </Array>
          </mxGeometry>
        </mxCell>
        <mxCell id="kHKhQP7QaM05DCIvFR9r-21" value="" style="edgeStyle=orthogonalEdgeStyle;rounded=0;orthogonalLoop=1;jettySize=auto;html=1;exitX=0.5;exitY=0;exitDx=0;exitDy=0;entryX=1;entryY=1;entryDx=0;entryDy=0;" edge="1" parent="1" source="kHKhQP7QaM05DCIvFR9r-18" target="kHKhQP7QaM05DCIvFR9r-4">
          <mxGeometry relative="1" as="geometry">
            <mxPoint x="550" y="790" as="sourcePoint" />
            <mxPoint x="540" y="550" as="targetPoint" />
            <Array as="points">
              <mxPoint x="540" y="478" />
            </Array>
          </mxGeometry>
        </mxCell>
        <mxCell id="kHKhQP7QaM05DCIvFR9r-22" value="" style="edgeStyle=orthogonalEdgeStyle;rounded=0;orthogonalLoop=1;jettySize=auto;html=1;exitX=0.5;exitY=0;exitDx=0;exitDy=0;entryX=1;entryY=1;entryDx=0;entryDy=0;" edge="1" parent="1" source="kHKhQP7QaM05DCIvFR9r-18" target="kHKhQP7QaM05DCIvFR9r-7">
          <mxGeometry relative="1" as="geometry">
            <mxPoint x="560" y="800" as="sourcePoint" />
            <mxPoint x="540" y="630" as="targetPoint" />
            <Array as="points">
              <mxPoint x="540" y="578" />
            </Array>
          </mxGeometry>
        </mxCell>
        <mxCell id="kHKhQP7QaM05DCIvFR9r-24" value="获奖" style="ellipse;whiteSpace=wrap;html=1;" vertex="1" parent="1">
          <mxGeometry x="320" y="730" width="120" height="80" as="geometry" />
        </mxCell>
        <mxCell id="kHKhQP7QaM05DCIvFR9r-26" value="" style="endArrow=none;html=1;exitX=0.5;exitY=0.5;exitDx=0;exitDy=0;exitPerimeter=0;entryX=0;entryY=0.5;entryDx=0;entryDy=0;" edge="1" parent="1" source="MDJzfDRsQ1mTerN8lBSb-6" target="kHKhQP7QaM05DCIvFR9r-24">
          <mxGeometry width="50" height="50" relative="1" as="geometry">
            <mxPoint x="155" y="660" as="sourcePoint" />
            <mxPoint x="330" y="660" as="targetPoint" />
          </mxGeometry>
        </mxCell>
        <mxCell id="kHKhQP7QaM05DCIvFR9r-28" value="" style="edgeStyle=orthogonalEdgeStyle;rounded=0;orthogonalLoop=1;jettySize=auto;html=1;" edge="1" parent="1" source="kHKhQP7QaM05DCIvFR9r-27" target="kHKhQP7QaM05DCIvFR9r-18">
          <mxGeometry relative="1" as="geometry" />
        </mxCell>
        <mxCell id="kHKhQP7QaM05DCIvFR9r-32" value="" style="edgeStyle=orthogonalEdgeStyle;rounded=0;orthogonalLoop=1;jettySize=auto;html=1;" edge="1" parent="1" source="kHKhQP7QaM05DCIvFR9r-27" target="kHKhQP7QaM05DCIvFR9r-30">
          <mxGeometry relative="1" as="geometry" />
        </mxCell>
        <mxCell id="kHKhQP7QaM05DCIvFR9r-33" value="" style="edgeStyle=orthogonalEdgeStyle;rounded=0;orthogonalLoop=1;jettySize=auto;html=1;" edge="1" parent="1" source="kHKhQP7QaM05DCIvFR9r-27" target="kHKhQP7QaM05DCIvFR9r-29">
          <mxGeometry relative="1" as="geometry" />
        </mxCell>
        <mxCell id="kHKhQP7QaM05DCIvFR9r-36" value="" style="edgeStyle=orthogonalEdgeStyle;rounded=0;orthogonalLoop=1;jettySize=auto;html=1;" edge="1" parent="1" source="kHKhQP7QaM05DCIvFR9r-27" target="kHKhQP7QaM05DCIvFR9r-35">
          <mxGeometry relative="1" as="geometry" />
        </mxCell>
        <mxCell id="kHKhQP7QaM05DCIvFR9r-27" value="电子素质报告册" style="ellipse;whiteSpace=wrap;html=1;" vertex="1" parent="1">
          <mxGeometry x="670" y="730" width="120" height="80" as="geometry" />
        </mxCell>
        <mxCell id="kHKhQP7QaM05DCIvFR9r-38" value="" style="edgeStyle=orthogonalEdgeStyle;rounded=0;orthogonalLoop=1;jettySize=auto;html=1;" edge="1" parent="1" source="kHKhQP7QaM05DCIvFR9r-29" target="kHKhQP7QaM05DCIvFR9r-37">
          <mxGeometry relative="1" as="geometry" />
        </mxCell>
        <mxCell id="kHKhQP7QaM05DCIvFR9r-29" value="文化成绩" style="ellipse;whiteSpace=wrap;html=1;" vertex="1" parent="1">
          <mxGeometry x="840" y="730" width="120" height="80" as="geometry" />
        </mxCell>
        <mxCell id="kHKhQP7QaM05DCIvFR9r-39" value="" style="edgeStyle=orthogonalEdgeStyle;rounded=0;orthogonalLoop=1;jettySize=auto;html=1;" edge="1" parent="1" source="kHKhQP7QaM05DCIvFR9r-30" target="kHKhQP7QaM05DCIvFR9r-37">
          <mxGeometry relative="1" as="geometry" />
        </mxCell>
        <mxCell id="kHKhQP7QaM05DCIvFR9r-41" value="" style="edgeStyle=orthogonalEdgeStyle;rounded=0;orthogonalLoop=1;jettySize=auto;html=1;" edge="1" parent="1" source="kHKhQP7QaM05DCIvFR9r-30" target="kHKhQP7QaM05DCIvFR9r-40">
          <mxGeometry relative="1" as="geometry" />
        </mxCell>
        <mxCell id="kHKhQP7QaM05DCIvFR9r-30" value="体育成绩" style="ellipse;whiteSpace=wrap;html=1;" vertex="1" parent="1">
          <mxGeometry x="670" y="580" width="120" height="80" as="geometry" />
        </mxCell>
        <mxCell id="kHKhQP7QaM05DCIvFR9r-31" value="" style="edgeStyle=orthogonalEdgeStyle;rounded=0;orthogonalLoop=1;jettySize=auto;html=1;entryX=0;entryY=0.5;entryDx=0;entryDy=0;exitX=1;exitY=0;exitDx=0;exitDy=0;" edge="1" parent="1" source="kHKhQP7QaM05DCIvFR9r-18" target="kHKhQP7QaM05DCIvFR9r-30">
          <mxGeometry relative="1" as="geometry">
            <mxPoint x="680" y="780" as="sourcePoint" />
            <mxPoint x="610" y="780" as="targetPoint" />
          </mxGeometry>
        </mxCell>
        <mxCell id="kHKhQP7QaM05DCIvFR9r-35" value="班主任评语" style="ellipse;whiteSpace=wrap;html=1;" vertex="1" parent="1">
          <mxGeometry x="670" y="860" width="120" height="80" as="geometry" />
        </mxCell>
        <mxCell id="kHKhQP7QaM05DCIvFR9r-37" value="成绩导入" style="ellipse;whiteSpace=wrap;html=1;" vertex="1" parent="1">
          <mxGeometry x="840" y="580" width="120" height="80" as="geometry" />
        </mxCell>
        <mxCell id="kHKhQP7QaM05DCIvFR9r-40" value="国家体质健康标准" style="shape=cylinder3;whiteSpace=wrap;html=1;boundedLbl=1;backgroundOutline=1;size=15;" vertex="1" parent="1">
          <mxGeometry x="700" y="450" width="60" height="80" as="geometry" />
        </mxCell>
        <mxCell id="kHKhQP7QaM05DCIvFR9r-42" value="教师" style="shape=umlActor;verticalLabelPosition=bottom;verticalAlign=top;html=1;outlineConnect=0;" vertex="1" parent="1">
          <mxGeometry x="1030" y="590" width="30" height="60" as="geometry" />
        </mxCell>
        <mxCell id="kHKhQP7QaM05DCIvFR9r-44" value="" style="endArrow=none;html=1;exitX=1;exitY=0.5;exitDx=0;exitDy=0;entryX=0.5;entryY=0.5;entryDx=0;entryDy=0;entryPerimeter=0;" edge="1" parent="1" source="kHKhQP7QaM05DCIvFR9r-37" target="kHKhQP7QaM05DCIvFR9r-42">
          <mxGeometry width="50" height="50" relative="1" as="geometry">
            <mxPoint x="960" y="580" as="sourcePoint" />
            <mxPoint x="1010" y="530" as="targetPoint" />
          </mxGeometry>
        </mxCell>
        <mxCell id="kHKhQP7QaM05DCIvFR9r-45" value="班主任" style="shape=umlActor;verticalLabelPosition=bottom;verticalAlign=top;html=1;outlineConnect=0;" vertex="1" parent="1">
          <mxGeometry x="1020" y="870" width="30" height="60" as="geometry" />
        </mxCell>
        <mxCell id="kHKhQP7QaM05DCIvFR9r-46" value="" style="endArrow=none;html=1;exitX=1;exitY=0.5;exitDx=0;exitDy=0;entryX=0.5;entryY=0.5;entryDx=0;entryDy=0;entryPerimeter=0;" edge="1" parent="1" source="kHKhQP7QaM05DCIvFR9r-35" target="kHKhQP7QaM05DCIvFR9r-45">
          <mxGeometry width="50" height="50" relative="1" as="geometry">
            <mxPoint x="970" y="630" as="sourcePoint" />
            <mxPoint x="1035" y="630" as="targetPoint" />
          </mxGeometry>
        </mxCell>
        <mxCell id="kHKhQP7QaM05DCIvFR9r-47" value="学生成长档案系统" style="swimlane;" vertex="1" parent="1">
          <mxGeometry x="270" y="220" width="720" height="750" as="geometry" />
        </mxCell>
      </root>
    </mxGraphModel>
  </diagram>
</mxfile>
